<svg width="240" height="240" version="1.1" xmlns="http://www.w3.org/2000/svg" ><path fill="rgb(0,0,0)" stroke="rgb(0,0,0)" stroke-width="1" opacity="1" d="M 0.5 0 L 240 0.5 L 239.5 240 L 0 239.5 L 0.5 0 Z" /><path fill="rgb(255,255,255)" stroke="rgb(255,255,255)" stroke-width="1" opacity="1" d="M 107.5 10 Q 148.3 7.2 171 22.5 Q 191.6 32.4 205 49.5 Q 216.4 62.6 223 80.5 Q 232.6 100.4 230 132.5 Q 221.7 181.2 189.5 206 Q 175.6 219 153.5 224 Q 149.1 220.9 148.5 214 L 143.5 197 L 131 156.5 Q 130 146.5 125.5 140 L 122 142.5 L 131 232.5 L 130.5 235 Q 129 232.5 127.5 236 L 123.5 237 Q 122.2 239.2 117.5 238 L 110.5 234 L 109 234.5 L 109 232.5 L 115.5 166 L 117 151.5 Q 116.3 144.8 119 141.5 L 117.5 139 Q 111.3 131.7 100.5 129 Q 96 135 87.5 137 L 62.5 151 L 52 156.5 Q 49.7 159.7 43.5 159 Q 30.8 142.2 33 110.5 Q 38.3 75.8 59.5 57 Q 81.5 32 129.5 33 Q 164.2 38.3 183 59.5 Q 193 69.5 199 83.5 Q 208.7 100.8 207 129.5 L 204 143.5 Q 202.2 153.2 196.5 159 Q 191.8 159.8 190 157.5 L 181 152.5 L 157.5 140 Q 154.7 135.3 146.5 136 L 145 139.5 L 147.5 143 L 178.5 168 Q 183 174.5 191.5 177 L 197 172.5 Q 213.8 151.3 213 112.5 Q 207.4 71.1 181.5 50 Q 158.5 27 112.5 27 Q 71.1 32.6 50 58.5 Q 27 81.5 27 127.5 Q 30.4 158.1 46.5 176 L 49.5 177 L 86 147.5 L 95 140.5 Q 96.9 135.9 104.5 137 L 111 142.5 L 112 147.5 L 98 192.5 L 92 213.5 Q 91.1 220.6 86.5 224 Q 52.3 214.7 34 189.5 Q 23.4 176.6 17 159.5 Q 7.4 139.6 10 107.5 Q 18.3 58.8 50.5 34 Q 72.1 15.1 107.5 10 Z" /><path fill="rgb(0,0,0)" stroke="rgb(0,0,0)" stroke-width="1" opacity="1" d="M 106.5 16 Q 147.5 13 170 28.5 Q 188.6 37.9 201 53.5 Q 211 64.5 216.5 80 Q 227 100 224 133.5 Q 215.8 177.8 186.5 201 L 178.5 207 Q 176.2 210.8 169.5 210 L 163 200.5 L 155 185.5 L 129 137.5 L 139.5 122 L 142.5 121 Q 147 124.5 156 123.5 L 191.5 127 Q 195.8 126.2 195 120.5 L 195 108.5 Q 188.9 77.1 167.5 61 Q 148.6 42.4 108.5 45 Q 77.1 51.1 61 72.5 Q 53.9 79.4 51 90.5 Q 43.1 102.1 45 123.5 Q 46.2 128.2 53.5 127 L 57.5 126 L 64 125.5 L 97.5 122 L 100 125.5 L 89 129.5 L 66 136.5 L 52.5 140 Q 50.2 142.7 44.5 142 L 42 140.5 Q 36.6 128.9 39 109.5 Q 45.3 73.8 69.5 56 Q 89.4 36.9 130.5 39 Q 166.2 45.3 184 69.5 Q 203.1 89.4 201 130.5 Q 200.8 137.2 197.5 141 L 191.5 142 L 165 133.5 L 144.5 128 L 139 132.5 Q 136 134.5 137 140.5 L 181.5 194 Q 187.1 194.6 188.5 191 L 196 183.5 Q 217.8 159.8 219 115.5 Q 214 68 184.5 45 Q 160.8 22.2 115.5 21 Q 67.8 25.8 45 55.5 Q 21.7 78.7 21 124.5 Q 25.7 170.3 53.5 193 L 58.5 194 L 98.5 146 L 102.5 145 Q 105 146 104 150.5 L 85 185.5 L 77 200.5 L 70.5 210 Q 64.1 210.9 62.5 207 L 53 200.5 L 39 186.5 Q 29.6 175.4 24 160.5 Q 12.9 140.6 16 106.5 Q 23.7 61.7 53.5 39 Q 73.8 21.3 106.5 16 Z" /><path fill="rgb(0,0,0)" stroke="rgb(0,0,0)" stroke-width="1" opacity="1" d="M 116.5 50 Q 135.9 49.6 148 56.5 Q 163.4 62.6 173 74.5 Q 185 87.5 189 108.5 L 185.5 113 L 166 115.5 L 142.5 118 L 140 114.5 L 149.5 111 L 167.5 106 L 174 103.5 L 179 100.5 Q 180.1 90.4 174.5 87 L 163.5 73 Q 147.5 56 114.5 56 Q 87.2 59.7 73 76.5 Q 64.7 85.2 60 97.5 L 63.5 103 L 95.5 112 L 101 107.5 Q 104 105.5 103 99.5 L 95.5 90 Q 92.4 88.6 93 83.5 Q 103.5 71.5 128.5 74 Q 140.7 75.8 147 83.5 Q 146.5 91 141.5 94 L 137.5 95 Q 135 94 136 89.5 L 137 84.5 Q 134.4 80.6 128.5 80 L 118.5 79 Q 107.8 78.8 103 84.5 Q 102.2 89.8 105 91.5 L 111 102.5 L 100.5 118 L 97.5 119 Q 95.2 116.3 89.5 117 L 70.5 115 L 60.5 114 Q 53.6 114.9 52 110.5 L 51 107.5 Q 57 81.5 74.5 67 Q 89.8 52.8 116.5 50 Z" /><path fill="rgb(0,0,0)" stroke="rgb(0,0,0)" stroke-width="1" opacity="1" d="M 113.5 62 Q 152.3 61.7 167 85.5 Q 169.8 87.2 169 92.5 Q 164.8 97.8 157.5 100 L 143 107.5 Q 142.5 111.5 137.5 111 L 122 100.5 L 121 97.5 Q 123.2 96.2 120.5 95 L 118 96.5 L 115.5 100 L 114 99.5 L 111 89.5 L 112.5 87 Q 115.8 83.8 123.5 85 L 128 87.5 L 129 91.5 L 128 95.5 L 132.5 101 Q 134.5 104 140.5 103 L 157 89.5 L 158 84.5 Q 144.9 66.6 112.5 68 Q 92.5 71.5 82 84.5 Q 82.1 90.9 86.5 93 L 94 98.5 L 95 102.5 Q 94 105 89.5 104 L 79.5 98 Q 73.8 96.8 71 92.5 L 72 87.5 L 76 82.5 L 85.5 73 Q 96.4 64.4 113.5 62 Z" /><path fill="rgb(0,0,0)" stroke="rgb(0,0,0)" stroke-width="1" opacity="1" d="M 116.5 107 Q 122.3 106.2 124 109.5 L 133 116.5 Q 133.8 122.3 130.5 124 L 123.5 133 Q 117.7 133.8 116 130.5 L 107 123.5 Q 106.2 117.7 109.5 116 L 116.5 107 Z" /></svg>