<svg width="240" height="240" version="1.1" xmlns="http://www.w3.org/2000/svg" ><path fill="rgb(0,0,0)" stroke="rgb(0,0,0)" stroke-width="1" opacity="1" d="M 0.5 0 L 240 0.5 L 239.5 240 L 0 239.5 L 0.5 0 Z" /><path fill="rgb(255,255,255)" stroke="rgb(255,255,255)" stroke-width="1" opacity="1" d="M 107.5 10 Q 149.6 7.4 173 23.5 Q 192.8 33.7 206 50.5 Q 217.5 64 224 82.5 Q 232.4 102.1 230 132.5 Q 223.4 175.4 197.5 199 Q 180.1 217.1 152.5 225 L 148.5 214 L 144 197.5 Q 132.5 166 124 131.5 L 130 126.5 L 132.5 119 L 170.5 115 L 180.5 114 Q 186.2 114.8 189 112.5 Q 184.9 81.1 164.5 66 Q 147.9 50.1 115.5 50 Q 82.3 54.3 66 75.5 Q 53.5 89 51 112.5 Q 55.6 115.4 64 114.5 L 102.5 118 Q 103.9 108.9 110.5 105 L 112 104.5 L 101 84.5 Q 108.4 78.4 122.5 79 Q 132.9 79.6 139 84.5 L 134 94.5 L 138.5 97 L 149 83.5 Q 137.2 71.8 111.5 74 Q 99 76.5 91 83.5 L 105 102.5 Q 99.6 106.1 97.5 113 L 59 101.5 Q 64.4 81.9 78.5 71 Q 94 55.5 125.5 56 Q 154.4 60.1 169 78.5 Q 177.3 87.7 181 101.5 L 131.5 116 L 126.5 110 L 119 107.5 L 117 91.5 L 122.5 91 L 123 94.5 Q 120.2 96.2 122 102.5 Q 131.1 103.9 135 110.5 L 135.5 112 L 171 92.5 L 159.5 77 Q 144.8 60.7 112.5 62 Q 89.6 66.1 77 80.5 L 69 92.5 L 94.5 106 L 97 101.5 L 80 87.5 L 88.5 78 Q 101.7 66.2 128.5 68 Q 149.3 72.2 160 86.5 L 159.5 88 L 137.5 105 Q 133.9 99.6 127 97.5 L 130 86.5 Q 124.5 84 115.5 85 L 110 86.5 L 116 108.5 L 110 113.5 L 107.5 121 L 45.5 127 L 45 108.5 Q 51 77 72.5 61 Q 91.4 42.4 131.5 45 Q 162.9 51.1 179 72.5 Q 186.1 79.4 189 90.5 Q 197.2 103.2 195 126.5 L 186.5 127 L 182.5 126 L 176 125.5 L 137.5 122 Q 136.1 131.1 129.5 135 L 128 135.5 L 169.5 212 Q 188.3 202.3 201 186.5 Q 222.7 162.7 225 119.5 Q 220.8 64.2 186.5 39 Q 162.7 17.3 119.5 15 Q 64.2 19.2 39 53.5 Q 17.5 77 15 119.5 Q 18.9 175.6 53.5 201 L 70.5 212 L 106 145.5 L 101.5 143 L 57.5 196 L 44 183.5 Q 21.4 160.1 21 114.5 Q 26.6 67.1 56.5 44 Q 79.9 21.4 125.5 21 Q 172.9 26.6 196 56.5 Q 218.6 79.9 219 125.5 Q 213.4 172.9 183.5 196 L 179 192.5 L 135 137.5 Q 140.4 133.9 142.5 127 L 197.5 143 Q 203.3 130.3 201 109.5 Q 194.7 73.8 170.5 56 Q 150.6 36.9 109.5 39 Q 73.8 45.3 56 69.5 Q 36.9 89.4 39 130.5 L 42.5 143 L 108.5 124 L 113.5 130 L 121 132.5 L 128 201.5 L 130 221.5 L 131 230.5 L 132 235.5 L 116.5 237 L 108 235.5 Q 111.6 223.1 111 206.5 L 112 201.5 L 113 191.5 L 118 137.5 Q 108.9 136.1 105 129.5 L 104.5 128 L 43.5 161 Q 30.9 143.1 33 110.5 Q 38.8 74.2 61.5 55 Q 71.6 45.6 85.5 40 Q 102.1 31.1 129.5 33 Q 165.8 38.8 185 61.5 Q 194.4 71.6 200 85.5 Q 208.9 102.1 207 129.5 Q 204.8 148.3 196.5 161 L 145.5 134 L 143 138.5 L 191.5 179 Q 213.8 157.3 213 112.5 Q 207.4 71.1 181.5 50 Q 158.5 27 112.5 27 Q 71.1 32.6 50 58.5 Q 40.1 69.1 34.5 84 Q 25.5 101 27 128.5 Q 31 160.5 48.5 179 L 102.5 135 Q 106.1 140.4 113 142.5 L 95 202.5 L 90.5 217 L 87.5 225 Q 58.8 216.8 41 197.5 Q 30.1 187.4 23.5 173 Q 7.4 149.6 10 107.5 Q 17.9 58.4 50.5 34 Q 72.1 15.1 107.5 10 Z" /></svg>